<?xml version="1.0" standalone="no"?>
<!DOCTYPE svg PUBLIC "-//W3C//DTD SVG 20010904//EN"
 "http://www.w3.org/TR/2001/REC-SVG-20010904/DTD/svg10.dtd">
<svg version="1.0" xmlns="http://www.w3.org/2000/svg"
 width="955.000000pt" height="534.000000pt" viewBox="0 0 955.000000 534.000000"
 preserveAspectRatio="xMidYMid meet">

<g transform="translate(0.000000,534.000000) scale(0.100000,-0.100000)"
fill="#000000" stroke="none">
<path d="M0 3832 l0 -1507 632 0 631 0 4 -24 c2 -14 9 -31 16 -40 10 -12 9
-13 -3 -6 -12 7 -13 6 -3 -6 19 -24 29 -100 38 -284 3 -71 8 -161 10 -200 6
-86 13 -336 21 -685 3 -146 10 -290 15 -320 15 -88 76 -161 158 -189 25 -8
878 -11 3275 -11 l3241 0 50 24 c84 40 127 100 139 196 3 25 8 164 11 310 6
324 14 580 20 680 2 41 7 134 10 205 6 119 11 175 20 215 2 8 4 25 4 38 1 16
5 21 14 16 7 -5 6 0 -3 11 -9 11 -10 16 -2 11 8 -5 12 1 12 19 0 18 4 24 13
19 9 -6 9 -5 0 7 -10 12 69 14 608 14 l619 0 0 1507 0 1508 -4775 0 -4775 0 0
-1508z m3891 1139 c25 -31 25 -85 -1 -111 l-20 -20 25 -40 c31 -48 31 -50 2
-50 -15 0 -30 12 -47 40 -19 31 -31 40 -52 40 -26 0 -28 -3 -28 -40 0 -33 -3
-40 -20 -40 -19 0 -20 7 -20 126 l0 126 71 -4 c60 -3 74 -8 90 -27z m447 7
c-2 -15 -11 -24 -25 -26 -19 -3 -23 1 -23 22 0 21 5 26 26 26 21 0 25 -4 22
-22z m632 7 c32 -17 36 -25 19 -42 -8 -8 -18 -7 -38 5 -38 21 -83 10 -79 -21
2 -16 15 -25 53 -35 28 -8 58 -21 68 -30 15 -13 17 -13 17 0 0 27 40 67 74 74
46 8 91 -17 107 -60 12 -32 13 -33 38 -20 14 8 39 14 54 14 19 0 27 4 25 13
-7 18 -37 21 -65 6 -20 -11 -26 -11 -33 1 -12 19 -5 27 36 40 75 25 110 -8
116 -110 l3 -64 -63 -3 c-68 -3 -102 8 -102 33 0 12 -7 10 -31 -10 -42 -36
-91 -35 -127 2 l-27 27 -28 -29 c-25 -25 -33 -28 -77 -24 -27 3 -61 13 -76 22
-23 16 -25 20 -11 33 13 13 18 13 40 -2 36 -23 91 -17 95 12 3 19 -4 24 -51
38 -69 20 -91 43 -82 85 11 52 87 75 145 45z m740 -25 c0 -38 1 -39 24 -29 34
16 70 4 84 -26 7 -14 12 -55 12 -91 0 -62 -1 -65 -22 -62 -21 3 -23 9 -26 71
-3 75 -18 93 -52 62 -16 -14 -20 -31 -20 -77 0 -51 -2 -58 -20 -58 -19 0 -20
7 -20 125 0 118 1 125 20 125 17 0 20 -7 20 -40z m-1635 -53 l33 -33 13 22
c25 48 107 55 145 13 16 -17 16 -22 4 -29 -20 -13 -26 -12 -40 5 -16 20 -39
19 -62 -2 -36 -32 -15 -93 32 -93 17 0 30 5 30 10 0 6 11 10 25 10 30 0 32
-13 5 -40 -29 -29 -94 -27 -125 5 -14 13 -25 31 -25 40 0 12 -14 15 -75 15
-72 0 -75 -1 -65 -19 14 -28 48 -36 69 -17 22 20 51 21 51 2 0 -23 -41 -46
-81 -46 -73 0 -116 87 -73 148 35 51 94 54 139 9z m260 -62 c0 -86 -1 -90 -22
-93 -22 -3 -23 -1 -23 93 0 94 1 96 23 93 21 -3 22 -7 22 -93z m65 86 c0 -5
13 -4 29 2 38 14 76 -2 99 -42 l16 -29 18 29 c18 30 53 49 88 49 27 0 78 -49
86 -82 l6 -28 -71 0 c-57 0 -71 -3 -71 -15 0 -9 11 -21 25 -27 20 -9 28 -8 43
5 23 21 52 22 52 3 0 -23 -41 -46 -81 -46 -26 0 -44 8 -63 26 -14 15 -26 32
-26 38 0 6 -9 -4 -20 -21 -20 -34 -54 -48 -95 -40 -23 4 -26 0 -31 -35 -5 -29
-11 -38 -23 -36 -14 3 -16 23 -19 131 -2 122 -2 127 18 127 11 0 20 -4 20 -9z
m1090 -11 c0 -8 -13 -21 -30 -27 -29 -11 -30 -13 -30 -77 0 -64 -1 -66 -25
-66 -25 0 -25 1 -25 88 0 49 2 91 5 93 2 3 27 5 55 5 39 0 50 -3 50 -16z m130
5 c17 -9 30 -22 30 -29 0 -21 -31 -28 -50 -11 -34 31 -70 11 -70 -40 0 -17 5
-36 12 -43 15 -15 54 -16 63 -2 9 15 45 12 45 -4 0 -22 -40 -46 -78 -46 -46 0
-92 46 -92 92 0 77 71 119 140 83z m2415 -500 l25 -24 0 -1721 0 -1721 -25
-24 -24 -25 -3231 0 -3231 0 -24 25 -25 24 0 1721 0 1721 25 24 24 25 3231 0
3231 0 24 -25z"/>
<path d="M3770 4915 c0 -45 0 -45 34 -45 35 0 66 21 66 45 0 24 -31 45 -66 45
-34 0 -34 0 -34 -45z"/>
<path d="M5072 4888 c-21 -21 -13 -28 33 -28 25 0 45 4 45 8 0 15 -24 32 -45
32 -12 0 -26 -5 -33 -12z"/>
<path d="M5060 4822 c0 -5 9 -17 19 -26 20 -18 61 -15 61 5 0 5 11 9 24 9 14
0 28 5 31 10 4 6 -20 10 -64 10 -39 0 -71 -4 -71 -8z"/>
<path d="M5247 4823 c-24 -23 12 -50 44 -33 29 16 24 40 -9 40 -16 0 -32 -3
-35 -7z"/>
<path d="M3982 4888 c-21 -21 -13 -28 33 -28 43 0 45 1 35 20 -12 22 -49 27
-68 8z"/>
<path d="M4422 4888 c-17 -17 -15 -73 2 -88 24 -19 60 -8 70 22 17 50 -38 100
-72 66z"/>
<path d="M4612 4888 c-21 -21 -13 -28 33 -28 43 0 45 1 35 20 -12 22 -49 27
-68 8z"/>
<path d="M2360 3911 c0 -89 6 -105 38 -94 17 6 15 23 -3 23 -12 0 -15 16 -15
80 0 47 -4 80 -10 80 -6 0 -10 -36 -10 -89z"/>
<path d="M2500 3910 c0 -73 3 -90 15 -90 11 0 15 12 15 44 0 46 19 72 45 62
11 -4 15 -20 15 -56 0 -27 5 -50 10 -50 6 0 10 24 10 54 0 61 -16 82 -55 72
-23 -6 -25 -3 -25 24 0 20 -5 30 -15 30 -12 0 -15 -17 -15 -90z"/>
<path d="M3280 3985 c0 -8 5 -15 10 -15 6 0 10 7 10 15 0 8 -4 15 -10 15 -5 0
-10 -7 -10 -15z"/>
<path d="M3540 3985 c0 -8 7 -15 15 -15 8 0 15 7 15 15 0 8 -7 15 -15 15 -8 0
-15 -7 -15 -15z"/>
<path d="M1910 3905 c0 -69 3 -85 15 -85 11 0 15 11 15 40 l0 40 45 0 45 0 0
-40 c0 -22 5 -40 10 -40 6 0 10 35 10 85 0 50 -4 85 -10 85 -5 0 -10 -16 -10
-35 0 -35 0 -35 -45 -35 -45 0 -45 0 -45 35 0 24 -5 35 -15 35 -12 0 -15 -16
-15 -85z"/>
<path d="M2430 3971 c0 -11 -6 -22 -12 -25 -10 -5 -10 -7 0 -12 7 -3 12 -26
12 -59 0 -55 8 -66 43 -57 23 6 22 22 -3 22 -17 0 -20 7 -20 45 0 33 4 45 15
45 8 0 15 5 15 10 0 6 -7 10 -15 10 -8 0 -15 9 -15 20 0 11 -4 20 -10 20 -5 0
-10 -9 -10 -19z"/>
<path d="M2710 3905 c0 -50 4 -85 10 -85 6 0 10 14 10 30 0 25 4 30 23 30 15
0 29 -11 40 -30 10 -16 25 -30 33 -30 12 0 11 7 -7 31 -20 29 -21 32 -6 41 20
11 23 68 5 86 -7 7 -34 12 -60 12 l-48 0 0 -85z m95 30 c0 -27 -3 -30 -37 -33
-38 -3 -38 -3 -38 33 0 36 0 36 38 33 34 -3 37 -6 37 -33z"/>
<path d="M3120 3971 c0 -11 -6 -22 -12 -25 -10 -5 -10 -7 0 -12 7 -3 12 -26
12 -59 0 -55 8 -66 43 -57 23 6 22 22 -3 22 -17 0 -20 7 -20 45 0 33 4 45 15
45 8 0 15 5 15 10 0 6 -7 10 -15 10 -8 0 -15 9 -15 20 0 11 -4 20 -10 20 -5 0
-10 -9 -10 -19z"/>
<path d="M3470 3971 c0 -11 -6 -22 -12 -25 -10 -5 -10 -7 0 -12 7 -3 12 -26
12 -59 0 -55 8 -66 43 -57 23 6 22 22 -3 22 -17 0 -20 7 -20 45 0 33 4 45 15
45 8 0 15 5 15 10 0 6 -7 10 -15 10 -8 0 -15 9 -15 20 0 11 -4 20 -10 20 -5 0
-10 -9 -10 -19z"/>
<path d="M2100 3930 c-41 -41 -13 -112 46 -112 14 0 33 7 42 17 16 17 16 17
-3 12 -11 -2 -27 -8 -36 -11 -10 -4 -24 0 -35 11 -17 17 -16 18 36 23 29 3 55
10 57 17 6 18 -42 63 -67 63 -11 0 -29 -9 -40 -20z m64 -6 c33 -13 17 -34 -24
-34 -41 0 -49 7 -28 28 13 13 28 15 52 6z"/>
<path d="M2243 3943 c-24 -9 -13 -21 19 -19 23 1 33 -4 36 -16 2 -12 -2 -15
-16 -11 -33 8 -64 -15 -60 -45 3 -25 6 -27 56 -28 l52 -2 0 42 c0 67 -36 100
-87 79z m62 -72 c7 -12 -22 -41 -40 -41 -18 0 -28 17 -21 35 6 16 51 20 61 6z"/>
<path d="M2870 3930 c-25 -25 -26 -61 -2 -90 22 -27 67 -30 90 -6 20 19 1 22
-28 4 -17 -11 -23 -9 -42 10 l-22 22 57 0 c49 0 57 3 57 18 0 25 -41 62 -68
62 -12 0 -31 -9 -42 -20z m80 -20 c10 -19 8 -20 -35 -20 -43 0 -45 1 -35 20 6
12 21 20 35 20 14 0 29 -8 35 -20z"/>
<path d="M3013 3943 c-7 -2 -13 -16 -13 -29 0 -19 8 -29 35 -40 19 -8 35 -18
35 -23 0 -15 -31 -21 -52 -10 -22 12 -37 4 -21 -12 14 -14 71 -15 84 -2 19 19
5 47 -29 62 -45 20 -43 45 3 38 19 -3 35 -2 35 3 0 16 -49 25 -77 13z"/>
<path d="M3200 3883 c0 -35 4 -63 10 -63 6 0 10 20 10 45 0 34 5 47 20 55 29
15 25 27 -10 27 l-30 0 0 -64z"/>
<path d="M3280 3885 c0 -37 4 -65 10 -65 6 0 10 28 10 65 0 37 -4 65 -10 65
-6 0 -10 -28 -10 -65z"/>
<path d="M3341 3924 c-26 -33 -26 -55 -3 -84 21 -26 67 -30 90 -7 14 15 12 16
-27 14 -36 -2 -45 2 -52 20 -6 16 -3 28 10 45 17 20 22 21 46 10 33 -15 47 -6
21 14 -30 21 -62 17 -85 -12z"/>
<path d="M3540 3885 c0 -51 3 -65 15 -65 12 0 15 14 15 65 0 51 -3 65 -15 65
-12 0 -15 -14 -15 -65z"/>
<path d="M3610 3930 c-43 -43 -14 -110 47 -110 34 0 48 13 58 52 5 21 1 33
-19 52 -30 31 -59 33 -86 6z m69 -14 c20 -24 10 -70 -17 -74 -46 -7 -69 40
-36 72 19 20 38 20 53 2z"/>
<path d="M3740 3885 c0 -37 4 -65 10 -65 6 0 10 20 10 45 0 35 5 47 21 55 31
17 49 -4 49 -56 0 -24 5 -44 10 -44 15 0 12 94 -4 116 -13 17 -18 18 -45 7
-17 -6 -31 -7 -31 -2 0 5 -4 9 -10 9 -6 0 -10 -28 -10 -65z"/>
<path d="M3893 3943 c-7 -2 -13 -16 -13 -29 0 -19 8 -29 35 -40 19 -8 35 -18
35 -23 0 -15 -31 -21 -52 -10 -22 12 -37 4 -21 -12 14 -14 71 -15 84 -2 19 19
5 47 -29 62 -45 20 -43 45 3 38 19 -3 35 -2 35 3 0 16 -49 25 -77 13z"/>
<path d="M1900 3615 l0 -145 2880 0 2880 0 0 145 0 145 -2880 0 -2880 0 0
-145z m5750 0 l0 -135 -2870 0 -2870 0 0 135 0 135 2870 0 2870 0 0 -135z"/>
<path d="M2103 3620 c0 -30 2 -43 4 -27 2 15 2 39 0 55 -2 15 -4 2 -4 -28z"/>
<path d="M2038 3653 c7 -3 16 -2 19 1 4 3 -2 6 -13 5 -11 0 -14 -3 -6 -6z"/>
<path d="M7516 3642 c-3 -5 6 -20 20 -33 l25 -23 27 27 c19 19 22 27 11 27 -8
0 -20 -5 -27 -12 -9 -9 -16 -7 -31 6 -10 9 -22 13 -25 8z"/>
<path d="M2128 3633 c7 -3 16 -2 19 1 4 3 -2 6 -13 5 -11 0 -14 -3 -6 -6z"/>
<path d="M2180 3625 c-22 -27 17 -72 41 -48 6 6 2 9 -13 9 -17 -1 -23 5 -23
19 0 14 6 20 22 19 12 0 20 3 17 8 -8 13 -30 9 -44 -7z"/>
<path d="M2270 3636 c0 -2 9 -6 20 -9 11 -3 18 -1 14 4 -5 9 -34 13 -34 5z"/>
<path d="M2335 3629 c-4 -6 -4 -13 -1 -16 3 -4 6 -1 6 5 0 6 8 13 18 15 15 4
15 5 0 6 -9 0 -20 -4 -23 -10z"/>
<path d="M2406 3631 c-4 -5 3 -7 14 -4 23 6 26 13 6 13 -8 0 -17 -4 -20 -9z"/>
<path d="M2516 3631 c-4 -5 3 -7 14 -4 23 6 26 13 6 13 -8 0 -17 -4 -20 -9z"/>
<path d="M2593 3605 c0 -22 2 -30 4 -17 2 12 2 30 0 40 -3 9 -5 -1 -4 -23z"/>
<path d="M2618 3633 c7 -3 16 -2 19 1 4 3 -2 6 -13 5 -11 0 -14 -3 -6 -6z"/>
<path d="M2676 3631 c-4 -5 3 -7 14 -4 23 6 26 13 6 13 -8 0 -17 -4 -20 -9z"/>
<path d="M2001 3614 c0 -11 3 -14 6 -6 3 7 2 16 -1 19 -3 4 -6 -2 -5 -13z"/>
<path d="M2251 3604 c0 -11 3 -14 6 -6 3 7 2 16 -1 19 -3 4 -6 -2 -5 -13z"/>
<path d="M2360 3603 c15 -7 12 -21 -5 -26 -11 -4 -10 -4 2 -3 21 2 25 28 5 32
-7 1 -8 0 -2 -3z"/>
<path d="M2050 3584 c-17 -9 -20 -14 -9 -14 9 0 22 7 29 15 15 18 13 18 -20
-1z"/>
<path d="M2285 3580 c-16 -7 -17 -9 -3 -9 9 -1 20 4 23 9 7 11 7 11 -20 0z"/>
<path d="M2408 3578 c5 -5 16 -8 23 -6 8 3 3 7 -10 11 -17 4 -21 3 -13 -5z"/>
<path d="M2518 3578 c5 -5 16 -8 23 -6 8 3 3 7 -10 11 -17 4 -21 3 -13 -5z"/>
<path d="M2678 3578 c5 -5 16 -8 23 -6 8 3 3 7 -10 11 -17 4 -21 3 -13 -5z"/>
<path d="M2540 3230 c0 -53 4 -90 10 -90 6 0 10 18 10 39 0 36 19 71 39 71 18
0 31 -28 31 -67 0 -24 5 -43 10 -43 6 0 10 24 10 54 0 63 -15 81 -60 71 -28
-6 -30 -5 -30 24 0 17 -4 31 -10 31 -6 0 -10 -37 -10 -90z"/>
<path d="M1922 3298 c-16 -16 -15 -55 1 -65 6 -4 28 -13 47 -18 48 -15 49 -49
2 -53 -18 -2 -39 2 -47 8 -9 7 -15 7 -19 1 -14 -23 81 -43 110 -23 38 26 12
75 -46 90 -25 6 -35 14 -35 28 0 15 8 19 40 20 58 2 62 3 45 14 -21 14 -84 12
-98 -2z"/>
<path d="M2070 3250 c-41 -41 -13 -112 46 -112 14 0 33 7 42 17 16 17 16 17
-3 12 -11 -2 -27 -8 -36 -11 -10 -4 -24 0 -35 11 -17 17 -16 18 36 23 29 3 55
10 57 17 6 18 -42 63 -67 63 -11 0 -29 -9 -40 -20z m64 -6 c33 -13 17 -34 -24
-34 -41 0 -49 7 -28 28 13 13 28 15 52 6z"/>
<path d="M2213 3263 c-24 -9 -13 -23 12 -17 14 4 32 1 40 -6 17 -14 11 -32 -9
-24 -7 3 -25 0 -39 -5 -35 -14 -38 -58 -4 -70 12 -5 26 -6 31 -3 5 3 21 5 35
4 27 -1 27 0 21 54 -4 32 -12 59 -21 65 -15 9 -46 11 -66 2z m63 -75 c6 -10
-20 -38 -35 -38 -17 1 -33 20 -28 34 7 18 52 22 63 4z"/>
<path d="M2330 3205 c0 -37 4 -65 10 -65 6 0 10 20 10 45 0 39 4 47 25 57 14
6 25 15 25 20 0 12 -24 10 -38 -4 -9 -9 -12 -9 -12 0 0 7 -4 12 -10 12 -6 0
-10 -28 -10 -65z"/>
<path d="M2420 3250 c-25 -25 -26 -61 -2 -90 22 -27 67 -30 90 -6 16 16 14 16
-25 10 -36 -5 -43 -3 -53 15 -6 12 -8 30 -5 41 7 23 43 36 58 21 6 -6 18 -11
26 -11 11 0 10 4 -4 20 -10 11 -29 20 -42 20 -12 0 -32 -9 -43 -20z"/>
<path d="M1900 2930 l0 -150 2880 0 2880 0 0 150 0 150 -2880 0 -2880 0 0
-150z m5740 0 l0 -130 -2860 0 -2860 0 0 130 0 130 2860 0 2860 0 0 -130z"/>
<path d="M2210 2541 c0 -89 6 -105 38 -94 17 6 15 23 -3 23 -12 0 -15 16 -15
80 0 47 -4 80 -10 80 -6 0 -10 -36 -10 -89z"/>
<path d="M2500 2615 c0 -8 5 -15 10 -15 6 0 10 7 10 15 0 8 -4 15 -10 15 -5 0
-10 -7 -10 -15z"/>
<path d="M1942 2613 c-22 -9 -44 -63 -37 -92 10 -39 44 -71 77 -71 37 0 68 16
68 36 0 13 -2 13 -22 0 -48 -34 -98 -7 -98 52 0 53 43 77 92 51 27 -14 38 -1
14 17 -19 14 -68 18 -94 7z"/>
<path d="M2093 2573 c-24 -9 -13 -21 19 -19 23 1 33 -4 36 -16 2 -12 -2 -15
-16 -11 -33 8 -64 -15 -60 -45 3 -25 6 -27 56 -28 l52 -2 0 42 c0 67 -36 100
-87 79z m62 -72 c7 -12 -22 -41 -40 -41 -18 0 -28 17 -21 35 6 16 51 20 61 6z"/>
<path d="M2281 2554 c-26 -33 -26 -55 -3 -84 36 -45 112 -17 112 42 0 62 -71
90 -109 42z m73 -10 c31 -31 13 -74 -31 -74 -33 0 -49 35 -28 66 18 28 37 31
59 8z"/>
<path d="M2410 2513 c0 -49 3 -63 15 -63 11 0 15 12 15 45 0 34 5 48 20 57 29
18 25 24 -15 24 l-35 0 0 -63z"/>
<path d="M2500 2515 c0 -37 4 -65 10 -65 6 0 10 28 10 65 0 37 -4 65 -10 65
-6 0 -10 -28 -10 -65z"/>
<path d="M2561 2554 c-26 -33 -26 -55 -3 -84 20 -25 63 -30 87 -10 21 17 12
24 -14 10 -15 -8 -27 -8 -41 0 -34 18 -22 30 30 30 43 0 50 3 50 20 0 27 -35
60 -64 60 -15 0 -33 -11 -45 -26z m77 -6 c21 -21 13 -28 -28 -28 -28 0 -40 4
-40 14 0 25 48 34 68 14z"/>
<path d="M2700 2565 c-19 -23 -7 -49 28 -60 17 -5 32 -14 32 -21 0 -18 -29
-25 -52 -13 -22 12 -37 4 -21 -12 17 -17 75 -14 89 5 18 25 8 43 -32 56 -42
14 -39 36 5 34 33 -2 42 10 15 20 -26 10 -51 7 -64 -9z"/>
<path d="M1900 2245 l0 -145 2880 0 2880 0 0 145 0 145 -2880 0 -2880 0 0
-145z m5750 0 l0 -135 -2870 0 -2870 0 0 135 0 135 2870 0 2870 0 0 -135z"/>
<path d="M2103 2250 c0 -30 2 -43 4 -27 2 15 2 39 0 55 -2 15 -4 2 -4 -28z"/>
<path d="M2038 2283 c7 -3 16 -2 19 1 4 3 -2 6 -13 5 -11 0 -14 -3 -6 -6z"/>
<path d="M7516 2272 c-3 -5 6 -20 20 -33 l25 -23 27 27 c19 19 22 27 11 27 -8
0 -20 -5 -27 -12 -9 -9 -16 -7 -31 6 -10 9 -22 13 -25 8z"/>
<path d="M2128 2263 c7 -3 16 -2 19 1 4 3 -2 6 -13 5 -11 0 -14 -3 -6 -6z"/>
<path d="M2180 2255 c-22 -27 17 -72 41 -48 6 6 2 9 -13 9 -17 -1 -23 5 -23
19 0 14 6 20 22 19 12 0 20 3 17 8 -8 13 -30 9 -44 -7z"/>
<path d="M2270 2266 c0 -2 9 -6 20 -9 11 -3 18 -1 14 4 -5 9 -34 13 -34 5z"/>
<path d="M2335 2259 c-4 -6 -4 -13 -1 -16 3 -4 6 -1 6 5 0 6 8 13 18 15 15 4
15 5 0 6 -9 0 -20 -4 -23 -10z"/>
<path d="M2406 2261 c-4 -5 3 -7 14 -4 23 6 26 13 6 13 -8 0 -17 -4 -20 -9z"/>
<path d="M2516 2261 c-4 -5 3 -7 14 -4 23 6 26 13 6 13 -8 0 -17 -4 -20 -9z"/>
<path d="M2590 2266 c0 -2 9 -6 20 -9 11 -3 18 -1 14 4 -5 9 -34 13 -34 5z"/>
<path d="M2710 2266 c0 -2 9 -6 20 -9 11 -3 18 -1 14 4 -5 9 -34 13 -34 5z"/>
<path d="M2773 2235 c0 -22 2 -30 4 -17 2 12 2 30 0 40 -3 9 -5 -1 -4 -23z"/>
<path d="M2823 2235 c0 -22 2 -30 4 -17 2 12 2 30 0 40 -3 9 -5 -1 -4 -23z"/>
<path d="M2856 2261 c-4 -5 3 -7 14 -4 23 6 26 13 6 13 -8 0 -17 -4 -20 -9z"/>
<path d="M2970 2266 c0 -2 9 -6 20 -9 11 -3 18 -1 14 4 -5 9 -34 13 -34 5z"/>
<path d="M3067 2263 c6 -4 13 -22 16 -38 4 -27 5 -27 3 4 0 21 -7 36 -16 38
-10 3 -11 2 -3 -4z"/>
<path d="M3100 2266 c0 -2 7 -7 16 -10 8 -3 12 -2 9 4 -6 10 -25 14 -25 6z"/>
<path d="M3160 2255 c-22 -27 17 -72 41 -48 6 6 2 9 -13 9 -17 -1 -23 5 -23
19 0 14 6 20 22 19 12 0 20 3 17 8 -8 13 -30 9 -44 -7z"/>
<path d="M3232 2250 c0 -14 2 -19 5 -12 2 6 2 18 0 25 -3 6 -5 1 -5 -13z"/>
<path d="M3282 2240 c0 -19 2 -27 5 -17 2 9 2 25 0 35 -3 9 -5 1 -5 -18z"/>
<path d="M3347 2263 c6 -4 13 -22 16 -38 4 -27 5 -27 3 4 0 21 -7 36 -16 38
-10 3 -11 2 -3 -4z"/>
<path d="M2001 2244 c0 -11 3 -14 6 -6 3 7 2 16 -1 19 -3 4 -6 -2 -5 -13z"/>
<path d="M2251 2234 c0 -11 3 -14 6 -6 3 7 2 16 -1 19 -3 4 -6 -2 -5 -13z"/>
<path d="M2691 2234 c0 -11 3 -14 6 -6 3 7 2 16 -1 19 -3 4 -6 -2 -5 -13z"/>
<path d="M2360 2233 c15 -7 12 -21 -5 -26 -11 -4 -10 -4 2 -3 21 2 25 28 5 32
-7 1 -8 0 -2 -3z"/>
<path d="M2585 2230 c-8 -13 3 -30 18 -30 8 0 7 3 -2 9 -7 5 -10 14 -7 20 4 6
5 11 2 11 -3 0 -8 -4 -11 -10z"/>
<path d="M2050 2214 c-17 -9 -20 -14 -9 -14 9 0 22 7 29 15 15 18 13 18 -20
-1z"/>
<path d="M2285 2210 c-16 -7 -17 -9 -3 -9 9 -1 20 4 23 9 7 11 7 11 -20 0z"/>
<path d="M2408 2208 c5 -5 16 -8 23 -6 8 3 3 7 -10 11 -17 4 -21 3 -13 -5z"/>
<path d="M2518 2208 c5 -5 16 -8 23 -6 8 3 3 7 -10 11 -17 4 -21 3 -13 -5z"/>
<path d="M2725 2210 c-16 -7 -17 -9 -3 -9 9 -1 20 4 23 9 7 11 7 11 -20 0z"/>
<path d="M2858 2208 c5 -5 16 -8 23 -6 8 3 3 7 -10 11 -17 4 -21 3 -13 -5z"/>
<path d="M3248 2203 c7 -3 16 -2 19 1 4 3 -2 6 -13 5 -11 0 -14 -3 -6 -6z"/>
<path d="M2055 1888 c-27 -15 -55 -49 -55 -69 0 -9 -7 -30 -15 -45 -11 -22
-15 -68 -15 -199 0 -193 8 -223 71 -257 32 -17 138 -18 2739 -18 2601 0 2707
1 2739 18 63 34 71 64 71 257 0 131 -4 177 -15 199 -8 15 -15 36 -15 45 -1 21
-29 55 -57 70 -31 16 -5419 15 -5448 -1z m3025 -143 c0 -8 -7 -15 -15 -15 -8
0 -15 7 -15 15 0 8 7 15 15 15 8 0 15 -7 15 -15z m-370 -23 c0 -26 3 -28 30
-24 40 6 70 -21 70 -61 0 -47 -25 -67 -82 -67 l-48 0 0 90 c0 73 3 90 15 90
10 0 15 -10 15 -28z m-216 12 c30 -12 16 -23 -26 -21 -37 2 -43 -1 -43 -18 0
-14 10 -22 35 -30 49 -14 60 -23 60 -49 0 -33 -19 -46 -65 -46 -46 0 -87 22
-66 35 7 4 18 2 24 -4 16 -16 74 -14 80 3 7 18 -9 32 -48 42 -39 9 -55 22 -55
45 0 39 55 62 104 43z m636 -14 c0 -11 7 -20 15 -20 8 0 15 -4 15 -10 0 -5 -7
-10 -15 -10 -11 0 -15 -11 -15 -41 0 -32 4 -42 20 -46 30 -8 24 -25 -7 -21
-26 3 -28 7 -31 53 -2 27 -8 55 -14 62 -7 9 -7 13 1 13 6 0 11 9 11 20 0 11 5
20 10 20 6 0 10 -9 10 -20z m-570 -59 c0 -51 8 -71 29 -71 28 0 41 21 41 67 0
24 5 43 10 43 6 0 10 -22 10 -49 0 -27 2 -56 5 -64 5 -11 -5 -14 -42 -15 -26
0 -54 4 -60 10 -15 12 -18 118 -3 118 6 0 10 -18 10 -39z m370 27 c0 -9 3 -9
12 0 19 19 66 15 78 -7 16 -31 13 -111 -5 -111 -11 0 -15 12 -15 50 0 36 -4
52 -15 56 -26 10 -45 -16 -45 -62 0 -24 -4 -44 -10 -44 -5 0 -10 19 -10 43 0
55 -13 76 -37 61 -12 -7 -19 -26 -21 -58 -2 -32 -7 -46 -18 -46 -11 0 -14 15
-14 64 l0 63 50 2 c32 0 50 -4 50 -11z m150 -53 c0 -51 -3 -65 -15 -65 -12 0
-15 14 -15 65 0 51 3 65 15 65 12 0 15 -14 15 -65z"/>
<path d="M4722 1671 c-8 -5 -12 -22 -10 -42 2 -29 7 -34 30 -37 21 -3 30 2 39
21 20 45 -19 84 -59 58z"/>
<path d="M26 2312 c-3 -5 1 -9 9 -9 8 0 12 4 9 9 -3 4 -7 8 -9 8 -2 0 -6 -4
-9 -8z"/>
<path d="M66 2312 c-3 -5 1 -9 9 -9 8 0 12 4 9 9 -3 4 -7 8 -9 8 -2 0 -6 -4
-9 -8z"/>
<path d="M106 2312 c-3 -5 1 -9 9 -9 8 0 12 4 9 9 -3 4 -7 8 -9 8 -2 0 -6 -4
-9 -8z"/>
<path d="M146 2312 c-3 -5 1 -9 9 -9 8 0 12 4 9 9 -3 4 -7 8 -9 8 -2 0 -6 -4
-9 -8z"/>
<path d="M186 2312 c-3 -5 1 -9 9 -9 8 0 12 4 9 9 -3 4 -7 8 -9 8 -2 0 -6 -4
-9 -8z"/>
<path d="M226 2312 c-3 -5 1 -9 9 -9 8 0 12 4 9 9 -3 4 -7 8 -9 8 -2 0 -6 -4
-9 -8z"/>
<path d="M266 2312 c-3 -5 1 -9 9 -9 8 0 12 4 9 9 -3 4 -7 8 -9 8 -2 0 -6 -4
-9 -8z"/>
<path d="M306 2312 c-3 -5 1 -9 9 -9 8 0 12 4 9 9 -3 4 -7 8 -9 8 -2 0 -6 -4
-9 -8z"/>
<path d="M346 2312 c-3 -5 1 -9 9 -9 8 0 12 4 9 9 -3 4 -7 8 -9 8 -2 0 -6 -4
-9 -8z"/>
<path d="M386 2312 c-3 -5 1 -9 9 -9 8 0 12 4 9 9 -3 4 -7 8 -9 8 -2 0 -6 -4
-9 -8z"/>
<path d="M426 2312 c-3 -5 1 -9 9 -9 8 0 12 4 9 9 -3 4 -7 8 -9 8 -2 0 -6 -4
-9 -8z"/>
<path d="M466 2312 c-3 -5 1 -9 9 -9 8 0 12 4 9 9 -3 4 -7 8 -9 8 -2 0 -6 -4
-9 -8z"/>
<path d="M506 2312 c-3 -5 1 -9 9 -9 8 0 12 4 9 9 -3 4 -7 8 -9 8 -2 0 -6 -4
-9 -8z"/>
<path d="M546 2312 c-3 -5 1 -9 9 -9 8 0 12 4 9 9 -3 4 -7 8 -9 8 -2 0 -6 -4
-9 -8z"/>
<path d="M586 2312 c-3 -5 1 -9 9 -9 8 0 12 4 9 9 -3 4 -7 8 -9 8 -2 0 -6 -4
-9 -8z"/>
<path d="M626 2312 c-3 -5 1 -9 9 -9 8 0 12 4 9 9 -3 4 -7 8 -9 8 -2 0 -6 -4
-9 -8z"/>
<path d="M666 2312 c-3 -5 1 -9 9 -9 8 0 12 4 9 9 -3 4 -7 8 -9 8 -2 0 -6 -4
-9 -8z"/>
<path d="M706 2312 c-3 -5 1 -9 9 -9 8 0 12 4 9 9 -3 4 -7 8 -9 8 -2 0 -6 -4
-9 -8z"/>
<path d="M746 2312 c-3 -5 1 -9 9 -9 8 0 12 4 9 9 -3 4 -7 8 -9 8 -2 0 -6 -4
-9 -8z"/>
<path d="M786 2312 c-3 -5 1 -9 9 -9 8 0 12 4 9 9 -3 4 -7 8 -9 8 -2 0 -6 -4
-9 -8z"/>
<path d="M826 2312 c-3 -5 1 -9 9 -9 8 0 12 4 9 9 -3 4 -7 8 -9 8 -2 0 -6 -4
-9 -8z"/>
<path d="M866 2312 c-3 -5 1 -9 9 -9 8 0 12 4 9 9 -3 4 -7 8 -9 8 -2 0 -6 -4
-9 -8z"/>
<path d="M906 2312 c-3 -5 1 -9 9 -9 8 0 12 4 9 9 -3 4 -7 8 -9 8 -2 0 -6 -4
-9 -8z"/>
<path d="M946 2312 c-3 -5 1 -9 9 -9 8 0 12 4 9 9 -3 4 -7 8 -9 8 -2 0 -6 -4
-9 -8z"/>
<path d="M986 2312 c-3 -5 1 -9 9 -9 8 0 12 4 9 9 -3 4 -7 8 -9 8 -2 0 -6 -4
-9 -8z"/>
<path d="M1026 2312 c-3 -5 1 -9 9 -9 8 0 12 4 9 9 -3 4 -7 8 -9 8 -2 0 -6 -4
-9 -8z"/>
<path d="M1066 2312 c-3 -5 1 -9 9 -9 8 0 12 4 9 9 -3 4 -7 8 -9 8 -2 0 -6 -4
-9 -8z"/>
<path d="M1106 2312 c-3 -5 1 -9 9 -9 8 0 12 4 9 9 -3 4 -7 8 -9 8 -2 0 -6 -4
-9 -8z"/>
<path d="M1146 2312 c-3 -5 1 -9 9 -9 8 0 12 4 9 9 -3 4 -7 8 -9 8 -2 0 -6 -4
-9 -8z"/>
<path d="M1186 2312 c-3 -5 1 -9 9 -9 8 0 12 4 9 9 -3 4 -7 8 -9 8 -2 0 -6 -4
-9 -8z"/>
<path d="M1226 2312 c-3 -5 1 -9 9 -9 8 0 12 4 9 9 -3 4 -7 8 -9 8 -2 0 -6 -4
-9 -8z"/>
<path d="M8346 2312 c-3 -5 1 -9 9 -9 8 0 12 4 9 9 -3 4 -7 8 -9 8 -2 0 -6 -4
-9 -8z"/>
<path d="M8386 2312 c-3 -5 1 -9 9 -9 8 0 12 4 9 9 -3 4 -7 8 -9 8 -2 0 -6 -4
-9 -8z"/>
<path d="M8426 2312 c-3 -5 1 -9 9 -9 8 0 12 4 9 9 -3 4 -7 8 -9 8 -2 0 -6 -4
-9 -8z"/>
<path d="M8466 2312 c-3 -5 1 -9 9 -9 8 0 12 4 9 9 -3 4 -7 8 -9 8 -2 0 -6 -4
-9 -8z"/>
<path d="M8506 2312 c-3 -5 1 -9 9 -9 8 0 12 4 9 9 -3 4 -7 8 -9 8 -2 0 -6 -4
-9 -8z"/>
<path d="M8546 2312 c-3 -5 1 -9 9 -9 8 0 12 4 9 9 -3 4 -7 8 -9 8 -2 0 -6 -4
-9 -8z"/>
<path d="M8586 2312 c-3 -5 1 -9 9 -9 8 0 12 4 9 9 -3 4 -7 8 -9 8 -2 0 -6 -4
-9 -8z"/>
<path d="M8626 2312 c-3 -5 1 -9 9 -9 8 0 12 4 9 9 -3 4 -7 8 -9 8 -2 0 -6 -4
-9 -8z"/>
<path d="M8666 2312 c-3 -5 1 -9 9 -9 8 0 12 4 9 9 -3 4 -7 8 -9 8 -2 0 -6 -4
-9 -8z"/>
<path d="M8706 2312 c-3 -5 1 -9 9 -9 8 0 12 4 9 9 -3 4 -7 8 -9 8 -2 0 -6 -4
-9 -8z"/>
<path d="M8746 2312 c-3 -5 1 -9 9 -9 8 0 12 4 9 9 -3 4 -7 8 -9 8 -2 0 -6 -4
-9 -8z"/>
<path d="M8786 2312 c-3 -5 1 -9 9 -9 8 0 12 4 9 9 -3 4 -7 8 -9 8 -2 0 -6 -4
-9 -8z"/>
<path d="M8826 2312 c-3 -5 1 -9 9 -9 8 0 12 4 9 9 -3 4 -7 8 -9 8 -2 0 -6 -4
-9 -8z"/>
<path d="M8866 2312 c-3 -5 1 -9 9 -9 8 0 12 4 9 9 -3 4 -7 8 -9 8 -2 0 -6 -4
-9 -8z"/>
<path d="M8906 2312 c-3 -5 1 -9 9 -9 8 0 12 4 9 9 -3 4 -7 8 -9 8 -2 0 -6 -4
-9 -8z"/>
<path d="M8946 2312 c-3 -5 1 -9 9 -9 8 0 12 4 9 9 -3 4 -7 8 -9 8 -2 0 -6 -4
-9 -8z"/>
<path d="M8986 2312 c-3 -5 1 -9 9 -9 8 0 12 4 9 9 -3 4 -7 8 -9 8 -2 0 -6 -4
-9 -8z"/>
<path d="M9026 2312 c-3 -5 1 -9 9 -9 8 0 12 4 9 9 -3 4 -7 8 -9 8 -2 0 -6 -4
-9 -8z"/>
<path d="M9066 2312 c-3 -5 1 -9 9 -9 8 0 12 4 9 9 -3 4 -7 8 -9 8 -2 0 -6 -4
-9 -8z"/>
<path d="M9106 2312 c-3 -5 1 -9 9 -9 8 0 12 4 9 9 -3 4 -7 8 -9 8 -2 0 -6 -4
-9 -8z"/>
<path d="M9146 2312 c-3 -5 1 -9 9 -9 8 0 12 4 9 9 -3 4 -7 8 -9 8 -2 0 -6 -4
-9 -8z"/>
<path d="M9186 2312 c-3 -5 1 -9 9 -9 8 0 12 4 9 9 -3 4 -7 8 -9 8 -2 0 -6 -4
-9 -8z"/>
<path d="M9226 2312 c-3 -5 1 -9 9 -9 8 0 12 4 9 9 -3 4 -7 8 -9 8 -2 0 -6 -4
-9 -8z"/>
<path d="M9266 2312 c-3 -5 1 -9 9 -9 8 0 12 4 9 9 -3 4 -7 8 -9 8 -2 0 -6 -4
-9 -8z"/>
<path d="M9306 2312 c-3 -5 1 -9 9 -9 8 0 12 4 9 9 -3 4 -7 8 -9 8 -2 0 -6 -4
-9 -8z"/>
<path d="M9346 2312 c-3 -5 1 -9 9 -9 8 0 12 4 9 9 -3 4 -7 8 -9 8 -2 0 -6 -4
-9 -8z"/>
<path d="M9386 2312 c-3 -5 1 -9 9 -9 8 0 12 4 9 9 -3 4 -7 8 -9 8 -2 0 -6 -4
-9 -8z"/>
<path d="M9426 2312 c-3 -5 1 -9 9 -9 8 0 12 4 9 9 -3 4 -7 8 -9 8 -2 0 -6 -4
-9 -8z"/>
<path d="M9466 2312 c-3 -5 1 -9 9 -9 8 0 12 4 9 9 -3 4 -7 8 -9 8 -2 0 -6 -4
-9 -8z"/>
<path d="M9506 2312 c-3 -5 1 -9 9 -9 8 0 12 4 9 9 -3 4 -7 8 -9 8 -2 0 -6 -4
-9 -8z"/>
</g>
</svg>
