<?xml version="1.0" encoding="utf-8"?>
<!-- Generator: Adobe Illustrator 16.0.0, SVG Export Plug-In . SVG Version: 6.00 Build 0)  -->
<!DOCTYPE svg PUBLIC "-//W3C//DTD SVG 1.1//EN" "http://www.w3.org/Graphics/SVG/1.1/DTD/svg11.dtd">
<svg version="1.1" id="Layer_1" xmlns="http://www.w3.org/2000/svg" xmlns:xlink="http://www.w3.org/1999/xlink" x="0px" y="0px"
	 width="600px" height="600px" viewBox="0 0 600 600" enable-background="new 0 0 600 600" xml:space="preserve">
<g>
	
		<linearGradient id="SVGID_1_" gradientUnits="userSpaceOnUse" x1="3577.7695" y1="-4319.1724" x2="3577.7695" y2="-5481.0361" gradientTransform="matrix(0.2065 0 0 -0.2065 -438.8095 -710.9618)">
		<stop  offset="0" style="stop-color:#FF8800"/>
		<stop  offset="1" style="stop-color:#FF3300"/>
	</linearGradient>
	<path fill="url(#SVGID_1_)" d="M127.445,424.071c-0.91-0.898-1.589-2.942-1.589-4.313c0-1.584-0.91-15.371-2.039-30.765
		l-2.039-28.065l2.269-49.561c2.258-50.46,2.489-52.269,6.336-52.269c0.68,0,2.04,0.449,2.949,1.359
		c1.359,1.124,2.039,7.461,4.298,49.999l2.719,48.875l-2.719,31.909c-1.59,17.651-3.168,32.584-3.848,33.258
		c-1.589,1.82-4.308,1.584-6.337-0.225V424.071L127.445,424.071z M150.519,423.397c-1.129-1.584-2.039-11.089-3.618-33.942
		c-1.809-27.155-2.039-34.854-1.129-55.213c0.449-12.908,1.359-38.471,2.039-56.807c0.68-18.325,1.359-34.403,1.59-36.212
		c0.91-5.877,7.696-6.776,9.056-1.124c0.23,1.124,1.589,28.505,2.949,60.639l2.489,58.616l-2.489,30.336
		c-1.359,16.741-2.489,30.774-2.489,31.448c0,1.799-2.949,4.304-4.978,4.304c-1.14,0-2.488-0.91-3.398-2.259v0.214H150.519z
		 M174.063,423.848c-1.59-1.585-2.039-4.078-2.489-15.832c-0.46-7.696-1.14-19.235-1.589-25.572
		c-1.359-16.057-1.14-36.887,0.449-86.458c0.91-23.517,1.59-47.28,1.59-53.167c0.23-11.989,1.14-15.606,4.309-16.517
		c3.848-0.91,6.786,1.809,6.786,6.562c0,2.27,1.129,31.685,2.27,65.178l2.269,60.875l-2.269,30.55c-1.14,16.741-2.27,31-2.27,31.685
		c0,1.799-2.949,4.304-5.208,4.304c-1.129,0-2.719-0.909-3.848-1.81V423.848z M197.596,423.848c-1.129-1.359-1.809-4.078-2.27-8.371
		c-3.398-51.594-3.398-55.223-1.809-109.075c2.039-74.212,2.488-81.245,4.297-83.054c1.809-1.81,6.797-1.81,8.376,0
		c0.909,0.91,1.589,14.033,2.719,43.448c2.719,82.144,2.949,95.267,1.129,122.198c-2.039,30.551-2.259,33.258-4.298,35.067
		c-2.039,2.034-5.657,1.819-7.926-0.45L197.596,423.848z M221.128,423.621c-1.129-1.146-2.039-3.617-2.039-5.213
		c0-1.584-0.68-15.156-1.59-30.089c-1.59-25.112-1.59-32.145,0-93.009c1.809-70.604,1.809-69.47,7.017-70.604
		c4.528-0.91,7.477,2.943,7.477,9.955c0,3.168,0.45,19.685,0.91,36.437c0.449,16.752,1.129,42.313,1.59,56.808
		c0.23,14.258,0.68,26.706,0.91,27.381c0.23,0.687-0.46,14.933-1.589,31.686c-1.13,16.741-2.04,31.448-2.04,32.594
		c0,2.708-3.618,6.337-6.787,6.337c-1.359,0-3.168-0.91-4.297-2.27h0.439L221.128,423.621L221.128,423.621z M245.341,423.848
		c-2.039-2.034-2.27-4.528-4.292-40.729c-1.129-21.045-0.91-43.213,1.124-114.963c1.141-38.46,1.141-39.135,7.247-39.135
		c2.044,0,4.078,0.675,5.213,2.034c2.034,2.044,2.034,3.618,2.933,36.651c0.236,10.404,1.135,35.763,1.584,56.122
		c0.92,33.259,0.92,40.291-0.899,67.661c-1.82,29.426-2.045,30.55-4.303,32.359c-2.955,2.258-6.567,2.258-9.056,0H245.341z
		 M269.318,423.848c-1.349-1.359-2.034-3.844-2.483-8.371c-1.584-17.427-2.719-60.65-2.269-86.223
		c0.235-15.831,0.92-40.045,1.145-54.314c1.124-57.246,1.595-66.291,3.607-68.325c2.494-2.494,7.472-2.494,9.741,0
		c2.483,2.483,2.719,9.73,4.978,120.165c0.674,33.271-1.595,91.64-3.843,95.707c-2.044,3.863-7.932,4.527-11.1,1.359
		L269.318,423.848L269.318,423.848z M294.002,423.621c-1.595-1.146-2.955-3.402-3.169-5.213c-0.235-1.818-1.134-16.525-2.033-32.808
		c-1.135-23.303-1.37-37.336-0.686-65.863c0.46-19.899,1.135-52.942,1.584-73.302c0.685-46.617,1.145-51.145,3.854-53.863
		c2.944-2.719,7.236-2.494,10.404,0.449c2.265,2.27,2.488,3.168,2.714,14.708c0,6.787,0.234,13.573,0.45,14.932
		c0.225,1.359,0.471,20.595,0.92,42.753c0.449,22.179,0.898,40.516,1.135,40.751c1.135,1.81,0.235,67.426-1.135,87.796
		c-0.92,12.674-1.596,23.987-1.596,24.888c0,2.494-4.521,6.786-7.455,6.786C297.621,425.655,295.352,424.757,294.002,423.621z
		 M315.94,423.173l-2.506-2.506V303.692V186.695l2.72-2.034c3.168-2.494,15.157-6.337,27.167-8.831
		c12.898-2.483,33.943-2.269,47.291,0.45c53.394,11.1,91.414,52.054,100.021,107.716l0.686,3.618l8.83-2.483
		c7.461-2.044,10.181-2.494,19.899-2.044c13.819,0.685,14.493,0.685,23.528,4.068c39.841,15.157,57.931,61.1,38.706,99.12
		c-8.843,17.651-21.506,28.73-40.74,35.752l-7.236,2.719l-107.716,0.236l-107.716,0.225L315.94,423.173z M103.683,422.263
		c-0.45-1.134-1.809-16.066-3.168-33.055c-2.269-29.864-2.269-31.225-0.68-50.214c0.91-10.649,1.82-23.773,2.269-28.976
		c0.68-9.506,2.27-14.044,4.758-14.044c3.168,0,4.078,3.629,6.797,32.371l2.719,29.426l-2.719,31.234
		c-1.359,17.19-2.949,32.134-3.399,33.482c-0.45,1.595-1.589,2.27-3.398,2.27c-1.809,0-2.719-0.675-3.399-2.27L103.683,422.263z
		 M81.06,422.724c-0.23-0.461-1.81-14.943-3.169-32.146l-2.719-31.233l2.719-32.358c1.359-17.876,3.169-33.044,3.629-33.718
		c1.359-1.584,3.398-1.584,4.758,0c0.68,0.685,2.489,15.627,4.079,33.504l2.938,32.134l-2.938,31.234
		c-1.589,17.189-3.168,31.685-3.399,32.349c-0.449,1.359-5.207,1.819-5.887,0.449v-0.214H81.06z M58.654,420.229
		c-0.449-0.675-2.039-14.473-3.398-30.774l-2.719-29.649l2.489-28.058c1.359-15.381,2.719-30.1,2.938-32.358
		c0.68-4.527,2.719-6.337,4.758-4.313c0.68,0.685,2.489,14.033,4.308,31.909l3.163,30.785l-2.949,29.65
		c-1.584,16.28-3.393,30.539-3.843,31.888c-1.129,2.505-3.399,2.954-4.758,1.146v-0.225L58.654,420.229L58.654,420.229z
		 M35.801,410.733c-0.229-0.91-1.809-13.358-3.168-27.381l-2.719-25.572l2.938-26.021c2.719-24.898,3.168-26.022,5.208-26.473
		c2.489-0.46,2.259-1.595,6.332,29.864l2.938,23.527l-2.938,24.674c-1.589,13.572-3.393,25.572-3.843,26.921
		c-1.14,2.719-3.628,2.954-4.308,0.46H35.801z M14.757,391.713c-0.23-0.909-1.59-8.596-2.719-16.967L10,359.354l2.269-16.292
		c1.129-9.045,2.719-16.978,3.168-17.641c2.253-2.72,3.843,1.585,6.102,17.641l2.488,16.292l-2.488,16.292
		c-1.359,9.056-3.169,16.729-3.849,17.19c-1.804,1.135-2.483,0.909-3.163-0.909L14.757,391.713z"/>
</g>
</svg>
