<?xml version="1.0" standalone="no"?>
<!DOCTYPE svg PUBLIC "-//W3C//DTD SVG 20010904//EN"
 "http://www.w3.org/TR/2001/REC-SVG-20010904/DTD/svg10.dtd">
<svg version="1.0" xmlns="http://www.w3.org/2000/svg"
 width="242.000000pt" height="102.000000pt" viewBox="0 0 242.000000 102.000000"
 preserveAspectRatio="xMidYMid meet">

<g transform="translate(0.000000,102.000000) scale(0.100000,-0.100000)"
fill="#000000" stroke="none">
<path d="M0 510 l0 -510 1210 0 1210 0 0 510 0 510 -1210 0 -1210 0 0 -510z
m588 74 c39 -11 27 -34 -18 -34 -29 0 -40 -4 -40 -15 0 -8 9 -15 21 -15 39 0
59 -19 59 -55 0 -41 -20 -55 -79 -55 -34 0 -41 3 -41 20 0 18 4 20 40 14 36
-6 40 -5 40 15 0 15 -6 21 -21 21 -39 0 -59 19 -59 56 0 27 5 37 23 44 27 11
45 12 75 4z m436 0 c33 -13 17 -34 -25 -34 l-40 0 3 -52 3 -53 40 0 c29 0 40
-4 40 -15 0 -19 -75 -26 -105 -10 -18 10 -21 19 -18 78 3 59 6 68 28 79 28 14
50 16 74 7z m-276 -47 c4 -47 -11 -67 -49 -67 -26 0 -29 -4 -29 -30 0 -23 -4
-30 -20 -30 -18 0 -20 7 -20 85 l0 86 58 -3 57 -3 3 -38z m115 26 c3 -10 17
-48 31 -85 l26 -68 -24 0 c-17 0 -26 7 -30 25 -5 19 -13 25 -35 25 -22 0 -30
-6 -35 -25 -4 -16 -13 -25 -26 -25 -25 0 -25 7 1 72 12 29 25 63 30 76 10 27
54 31 62 5z m317 2 c0 -11 -11 -15 -40 -15 -29 0 -40 -4 -40 -15 0 -10 11 -15
35 -15 28 0 35 -4 35 -20 0 -16 -7 -20 -35 -20 -28 0 -35 -4 -35 -20 0 -17 7
-20 40 -20 29 0 40 -4 40 -15 0 -12 -13 -15 -60 -15 l-60 0 0 85 0 85 60 0
c47 0 60 -3 60 -15z"/>
<path d="M670 525 c0 -18 5 -25 20 -25 15 0 20 7 20 25 0 18 -5 25 -20 25 -15
0 -20 -7 -20 -25z"/>
<path d="M826 511 c-4 -7 -5 -15 -2 -18 9 -9 19 4 14 18 -4 11 -6 11 -12 0z"/>
</g>
</svg>
